<svg width="34" height="40" viewBox="0 0 34 40" fill="none" xmlns="http://www.w3.org/2000/svg">
<path d="M0.492676 16.0167L16.5927 0L32.6927 16.0167C32.8826 16.1613 33.0393 16.3451 33.152 16.5556C33.2648 16.766 33.331 16.9982 33.3462 17.2365C33.3614 17.4748 33.3253 17.7136 33.2402 17.9366C33.1551 18.1597 33.023 18.3619 32.853 18.5295C32.683 18.6972 32.4789 18.8263 32.2546 18.9082C32.0304 18.9901 31.7911 19.0228 31.5531 19.0042C31.315 18.9856 31.0838 18.9161 30.8749 18.8004C30.6661 18.6846 30.4846 18.5253 30.3427 18.3333L18.2593 6.35V38.2333C18.2593 38.6754 18.0838 39.0993 17.7712 39.4118C17.4586 39.7244 17.0347 39.9 16.5927 39.9C16.1506 39.9 15.7267 39.7244 15.4142 39.4118C15.1016 39.0993 14.926 38.6754 14.926 38.2333L14.926 6.35L2.84268 18.3333C2.52884 18.645 2.10406 18.8192 1.66178 18.8176C1.21951 18.816 0.79597 18.6388 0.484341 18.325C0.172711 18.0112 -0.00148269 17.5864 8.01086e-05 17.1441C0.0016429 16.7018 0.178836 16.2783 0.492676 15.9667V16.0167Z" fill="#BD8E3D"/>
</svg>
